<svg width="101" height="116" viewBox="0 0 101 116" fill="none" xmlns="http://www.w3.org/2000/svg">
<rect x="0.875238" y="1.09394" width="46.7252" height="33.1689" rx="4" transform="matrix(0.994874 0.10112 -0.119636 0.992818 51.9473 22.3758)" fill="black" stroke="#F6C8B4" stroke-width="2"/>
<ellipse cx="17.6551" cy="37.5418" rx="17.6551" ry="37.5418" transform="matrix(0.911204 0.411956 -0.472414 0.881377 53.009 0)" fill="url(#paint0_linear_54_37)"/>
<ellipse cx="13.0255" cy="33.2158" rx="13.0255" ry="33.2158" transform="matrix(0.911204 0.411956 -0.472414 0.881377 53.9326 5.19843)" fill="black"/>
<ellipse cx="92.7033" cy="43.1662" rx="1.25275" ry="1.15054" fill="white"/>
<path fill-rule="evenodd" clip-rule="evenodd" d="M0 5.21222V10.4406H11.2747C13.1538 10.4406 14.4066 10.9649 14.4066 10.9649L15.6593 14.9918L24.4286 51.034C24.4286 51.034 23.7158 53.3697 24.4286 54.5135C25.1413 55.6573 26.9341 55.8359 26.9341 55.8359L35.83 56.4412C35.3546 57.0851 35.0769 57.862 35.0769 58.6984C35.0769 60.9224 37.04 62.7253 39.4615 62.7253C41.8831 62.7253 43.8462 60.9224 43.8462 58.6984C43.8462 58.0749 43.6918 57.4844 43.4164 56.9575L50.1099 57.413C50.1099 57.413 54.6484 51.5904 57 47.5546C59.551 43.1766 60.6296 40.4508 62.4183 35.93C62.4902 35.7485 62.5631 35.5641 62.6374 35.3766C62.7649 35.0546 62.8862 34.7496 63.0025 34.4575C63.8576 32.3091 64.4371 30.8533 65.1429 28.4177C65.7273 26.4011 66.3956 23.1986 66.3956 23.1986L22.5495 19.7191L18.1648 9.2391C18.1648 9.2391 16.9121 6.5179 13.1538 5.78749C9.39561 5.05707 0 5.21222 0 5.21222Z" fill="url(#paint1_linear_54_37)"/>
<path d="M47.0736 37.3455L43.875 39.5334L39.5062 31.9903L39.5392 39.7052L34.2055 37.7604C34.4968 38.576 34.7259 39.3216 34.8926 39.9974C35.0566 40.6688 35.162 41.2713 35.2088 41.8049C35.2725 42.5118 35.2403 43.1931 35.1122 43.8487C34.987 44.5087 34.7695 45.1441 34.46 45.7548L33.8348 45.3453C34.1929 44.5384 34.3321 43.5977 34.2523 42.5232C34.1771 41.4462 33.8875 40.233 33.3835 38.8835L30.4485 31.0306L38.0921 35.5695L37.3887 27.6367L38.9684 26.8705L47.0736 37.3455ZM38.0917 37.2097L33.0221 34.4109L33.7751 36.3573L38.1206 38.1201L38.0917 37.2097ZM42.4607 33.1057L42.2986 32.8477L42.0089 33.1774C42.3654 33.8233 42.663 34.4827 42.9016 35.1557C43.1421 35.8218 43.3245 36.4982 43.4489 37.1846L44.2058 36.9248C43.9578 36.1686 43.6874 35.4742 43.3945 34.8417C43.0988 34.2048 42.7875 33.6262 42.4607 33.1057Z" fill="black"/>
<path d="M37.7887 41.1993L43.535 43.1317L38.838 46.7362L37.7887 41.1993Z" fill="black"/>
<path d="M11.9145 99L11.4645 97.13H8.62451L8.24451 99H5.30451L8.35451 88.09L8.11451 87.28H12.2445L15.5845 99H11.9145ZM9.91451 90.72L9.03451 95.09H10.9745L9.91451 90.72ZM18.979 99V87.28H22.289V96.32H25.269V99H18.979ZM29.186 99V87.28H32.496V96.32H35.476V99H29.186ZM48.9467 99H45.9367L46.8667 87.28H51.5567L52.4367 91.21L52.8367 93.2L53.2167 91.22L53.9967 87.28H58.1767L59.0367 99H55.9267L55.4167 92.11L55.2967 89.57L53.7667 97.83H51.1567L49.3167 89.57L49.2567 92.11L48.9467 99ZM68.6626 99L68.2126 97.13H65.3726L64.9926 99H62.0526L65.1026 88.09L64.8626 87.28H68.9926L72.3326 99H68.6626ZM66.6626 90.72L65.7826 95.09H67.7226L66.6626 90.72ZM79.017 95.1V99H75.697V87.28H77.017C77.337 87.28 77.8137 87.2667 78.447 87.24C79.0803 87.2067 79.6037 87.19 80.017 87.19C81.457 87.19 82.5303 87.5067 83.237 88.14C83.9503 88.7733 84.307 89.7433 84.307 91.05C84.307 91.8233 84.137 92.51 83.797 93.11C83.4637 93.71 83.0203 94.1867 82.467 94.54C82.767 94.6133 83.0237 94.7833 83.237 95.05C83.457 95.3167 83.627 95.6333 83.747 96C83.867 96.36 83.9703 96.7267 84.057 97.1C84.1503 97.4667 84.2537 97.83 84.367 98.19C84.487 98.55 84.617 98.82 84.757 99H81.067C80.9937 98.9067 80.937 98.6467 80.897 98.22C80.857 97.7867 80.8003 97.27 80.727 96.67C80.6603 96.0633 80.5637 95.5567 80.437 95.15C80.4237 95.15 80.407 95.15 80.387 95.15C80.2603 95.15 80.1237 95.15 79.977 95.15C79.837 95.1433 79.7137 95.1367 79.607 95.13C79.5003 95.1233 79.387 95.1167 79.267 95.11C79.1537 95.1033 79.0703 95.1 79.017 95.1ZM79.017 93.24H79.337C79.5037 93.24 79.6437 93.2333 79.757 93.22C79.8703 93.2067 79.9937 93.1833 80.127 93.15C80.267 93.11 80.3803 93.05 80.467 92.97C80.5603 92.89 80.647 92.7867 80.727 92.66C80.807 92.5333 80.867 92.37 80.907 92.17C80.947 91.97 80.967 91.7367 80.967 91.47V90.68C80.967 90.1 80.8137 89.6967 80.507 89.47C80.207 89.2367 79.7737 89.12 79.207 89.12H79.017V93.24ZM90.255 99V89.93H87.915V87.28H95.975V89.93H93.635V99H90.255Z" fill="#F7AC8B"/>
<defs>
<linearGradient id="paint0_linear_54_37" x1="9.27274" y1="6.78553" x2="16.8398" y2="75.1738" gradientUnits="userSpaceOnUse">
<stop stop-color="#F7AC8B"/>
<stop offset="1" stop-color="#F6C8B4"/>
</linearGradient>
<linearGradient id="paint1_linear_54_37" x1="27.5604" y1="27.0586" x2="57.6198" y2="44.7327" gradientUnits="userSpaceOnUse">
<stop stop-color="#F7AC8B"/>
<stop offset="1" stop-color="white"/>
</linearGradient>
</defs>
</svg>
